<svg width="186" height="49" viewBox="0 0 186 49" fill="none" xmlns="http://www.w3.org/2000/svg">
<rect x="36" y="5" width="150" height="38" rx="5" fill="#0B846E"/>
<circle cx="24.5" cy="24.5" r="24" fill="#289A85" stroke="white"/>
<path d="M28.75 24.5L34 19.25L28.75 14V17.15H24.55V21.35H28.75V24.5ZM30.85 29.225C29.5375 29.225 28.2775 29.015 27.1015 28.6265C26.734 28.511 26.3245 28.595 26.0305 28.8785L23.7205 31.1885C20.749 29.6765 18.313 27.251 16.801 24.269L19.111 21.9485C19.405 21.6755 19.489 21.266 19.3735 20.8985C18.985 19.7225 18.775 18.4625 18.775 17.15C18.775 16.5725 18.3025 16.1 17.725 16.1H14.05C13.4725 16.1 13 16.5725 13 17.15C13 27.0095 20.9905 35 30.85 35C31.4275 35 31.9 34.5275 31.9 33.95V30.275C31.9 29.6975 31.4275 29.225 30.85 29.225Z" fill="white"/>
<path d="M65.2973 22.976C66.0119 22.976 66.6626 23.12 67.2493 23.408C67.8359 23.696 68.2999 24.1067 68.6413 24.64C68.9826 25.1627 69.1533 25.7707 69.1533 26.464C69.1533 27.2107 68.9666 27.8667 68.5933 28.432C68.2199 28.9973 67.7079 29.4347 67.0573 29.744C66.4173 30.0427 65.7026 30.192 64.9133 30.192C63.3453 30.192 62.1186 29.712 61.2333 28.752C60.3479 27.792 59.9053 26.4213 59.9053 24.64C59.9053 23.3707 60.1453 22.2827 60.6253 21.376C61.1053 20.4693 61.7719 19.7813 62.6253 19.312C63.4893 18.8427 64.4866 18.608 65.6173 18.608C66.2146 18.608 66.7853 18.6773 67.3293 18.816C67.8839 18.944 68.3533 19.1307 68.7373 19.376L67.7773 21.28C67.2226 20.9067 66.5239 20.72 65.6813 20.72C64.7319 20.72 63.9799 20.9973 63.4253 21.552C62.8706 22.1067 62.5719 22.912 62.5293 23.968C63.1906 23.3067 64.1133 22.976 65.2973 22.976ZM64.7693 28.256C65.3239 28.256 65.7719 28.1067 66.1133 27.808C66.4653 27.5093 66.6413 27.104 66.6413 26.592C66.6413 26.08 66.4653 25.6747 66.1133 25.376C65.7719 25.0667 65.3133 24.912 64.7373 24.912C64.1719 24.912 63.7079 25.072 63.3453 25.392C62.9826 25.7013 62.8013 26.1013 62.8013 26.592C62.8013 27.0827 62.9773 27.4827 63.3293 27.792C63.6813 28.1013 64.1613 28.256 64.7693 28.256ZM80.3488 27.648H78.5248V30H75.9968V27.648H69.9648V25.904L75.2448 18.8H77.9648L73.0688 25.536H76.0768V23.44H78.5248V25.536H80.3488V27.648ZM91.38 27.648H89.556V30H87.028V27.648H80.996V25.904L86.276 18.8H88.996L84.1 25.536H87.108V23.44H89.556V25.536H91.38V27.648ZM92.5195 24.496H97.0475V26.496H92.5195V24.496ZM103.938 22.976C104.653 22.976 105.303 23.12 105.89 23.408C106.477 23.696 106.941 24.1067 107.282 24.64C107.623 25.1627 107.794 25.7707 107.794 26.464C107.794 27.2107 107.607 27.8667 107.234 28.432C106.861 28.9973 106.349 29.4347 105.698 29.744C105.058 30.0427 104.343 30.192 103.554 30.192C101.986 30.192 100.759 29.712 99.8739 28.752C98.9885 27.792 98.5459 26.4213 98.5459 24.64C98.5459 23.3707 98.7859 22.2827 99.2659 21.376C99.7459 20.4693 100.413 19.7813 101.266 19.312C102.13 18.8427 103.127 18.608 104.258 18.608C104.855 18.608 105.426 18.6773 105.97 18.816C106.525 18.944 106.994 19.1307 107.378 19.376L106.418 21.28C105.863 20.9067 105.165 20.72 104.322 20.72C103.373 20.72 102.621 20.9973 102.066 21.552C101.511 22.1067 101.213 22.912 101.17 23.968C101.831 23.3067 102.754 22.976 103.938 22.976ZM103.41 28.256C103.965 28.256 104.413 28.1067 104.754 27.808C105.106 27.5093 105.282 27.104 105.282 26.592C105.282 26.08 105.106 25.6747 104.754 25.376C104.413 25.0667 103.954 24.912 103.378 24.912C102.813 24.912 102.349 25.072 101.986 25.392C101.623 25.7013 101.442 26.1013 101.442 26.592C101.442 27.0827 101.618 27.4827 101.97 27.792C102.322 28.1013 102.802 28.256 103.41 28.256ZM112.573 23.008C114.152 23.008 115.315 23.3227 116.061 23.952C116.819 24.5813 117.197 25.424 117.197 26.48C117.197 27.1627 117.027 27.7867 116.685 28.352C116.344 28.9067 115.821 29.3547 115.117 29.696C114.424 30.0267 113.565 30.192 112.541 30.192C111.752 30.192 110.973 30.0907 110.205 29.888C109.448 29.6747 108.803 29.376 108.269 28.992L109.293 27.008C109.72 27.328 110.211 27.5787 110.765 27.76C111.32 27.9307 111.891 28.016 112.477 28.016C113.128 28.016 113.64 27.888 114.013 27.632C114.387 27.376 114.573 27.0187 114.573 26.56C114.573 26.08 114.376 25.7173 113.981 25.472C113.597 25.2267 112.925 25.104 111.965 25.104H109.101L109.677 18.8H116.509V20.88H111.837L111.661 23.008H112.573ZM122.011 23.008C123.59 23.008 124.752 23.3227 125.499 23.952C126.256 24.5813 126.635 25.424 126.635 26.48C126.635 27.1627 126.464 27.7867 126.123 28.352C125.782 28.9067 125.259 29.3547 124.555 29.696C123.862 30.0267 123.003 30.192 121.979 30.192C121.19 30.192 120.411 30.0907 119.643 29.888C118.886 29.6747 118.24 29.376 117.707 28.992L118.731 27.008C119.158 27.328 119.648 27.5787 120.203 27.76C120.758 27.9307 121.328 28.016 121.915 28.016C122.566 28.016 123.078 27.888 123.451 27.632C123.824 27.376 124.011 27.0187 124.011 26.56C124.011 26.08 123.814 25.7173 123.419 25.472C123.035 25.2267 122.363 25.104 121.403 25.104H118.539L119.115 18.8H125.947V20.88H121.275L121.099 23.008H122.011ZM127.895 24.496H132.423V26.496H127.895V24.496ZM137.698 23.008C139.277 23.008 140.44 23.3227 141.186 23.952C141.944 24.5813 142.322 25.424 142.322 26.48C142.322 27.1627 142.152 27.7867 141.81 28.352C141.469 28.9067 140.946 29.3547 140.242 29.696C139.549 30.0267 138.69 30.192 137.666 30.192C136.877 30.192 136.098 30.0907 135.33 29.888C134.573 29.6747 133.928 29.376 133.394 28.992L134.418 27.008C134.845 27.328 135.336 27.5787 135.89 27.76C136.445 27.9307 137.016 28.016 137.602 28.016C138.253 28.016 138.765 27.888 139.138 27.632C139.512 27.376 139.698 27.0187 139.698 26.56C139.698 26.08 139.501 25.7173 139.106 25.472C138.722 25.2267 138.05 25.104 137.09 25.104H134.226L134.802 18.8H141.634V20.88H136.962L136.786 23.008H137.698ZM148.766 22.976C149.481 22.976 150.131 23.12 150.718 23.408C151.305 23.696 151.769 24.1067 152.11 24.64C152.451 25.1627 152.622 25.7707 152.622 26.464C152.622 27.2107 152.435 27.8667 152.062 28.432C151.689 28.9973 151.177 29.4347 150.526 29.744C149.886 30.0427 149.171 30.192 148.382 30.192C146.814 30.192 145.587 29.712 144.702 28.752C143.817 27.792 143.374 26.4213 143.374 24.64C143.374 23.3707 143.614 22.2827 144.094 21.376C144.574 20.4693 145.241 19.7813 146.094 19.312C146.958 18.8427 147.955 18.608 149.086 18.608C149.683 18.608 150.254 18.6773 150.798 18.816C151.353 18.944 151.822 19.1307 152.206 19.376L151.246 21.28C150.691 20.9067 149.993 20.72 149.15 20.72C148.201 20.72 147.449 20.9973 146.894 21.552C146.339 22.1067 146.041 22.912 145.998 23.968C146.659 23.3067 147.582 22.976 148.766 22.976ZM148.238 28.256C148.793 28.256 149.241 28.1067 149.582 27.808C149.934 27.5093 150.11 27.104 150.11 26.592C150.11 26.08 149.934 25.6747 149.582 25.376C149.241 25.0667 148.782 24.912 148.206 24.912C147.641 24.912 147.177 25.072 146.814 25.392C146.451 25.7013 146.27 26.1013 146.27 26.592C146.27 27.0827 146.446 27.4827 146.798 27.792C147.15 28.1013 147.63 28.256 148.238 28.256ZM162.267 18.8V20.48L158.107 30H155.291L159.307 20.912H155.595V22.736H153.291V18.8H162.267ZM172.189 18.8V20.48L168.029 30H165.213L169.229 20.912H165.517V22.736H163.213V18.8H172.189Z" fill="white"/>
</svg>
