<svg width="186" height="49" viewBox="0 0 186 49" fill="none" xmlns="http://www.w3.org/2000/svg">
<rect x="36" y="5" width="150" height="38" rx="5" fill="#0B846E"/>
<circle cx="24.5" cy="24.5" r="24" fill="#289A85" stroke="white"/>
<path d="M30.125 12.1362L18.875 12.125C17.6375 12.125 16.625 13.1375 16.625 14.375V34.625C16.625 35.8625 17.6375 36.875 18.875 36.875H30.125C31.3625 36.875 32.375 35.8625 32.375 34.625V14.375C32.375 13.1375 31.3625 12.1362 30.125 12.1362ZM30.125 32.375H18.875V16.625H30.125V32.375Z" fill="white"/>
<path d="M65.2113 22.976C65.926 22.976 66.5766 23.12 67.1633 23.408C67.75 23.696 68.214 24.1067 68.5553 24.64C68.8966 25.1627 69.0673 25.7707 69.0673 26.464C69.0673 27.2107 68.8806 27.8667 68.5073 28.432C68.134 28.9973 67.622 29.4347 66.9713 29.744C66.3313 30.0427 65.6166 30.192 64.8273 30.192C63.2593 30.192 62.0326 29.712 61.1473 28.752C60.262 27.792 59.8193 26.4213 59.8193 24.64C59.8193 23.3707 60.0593 22.2827 60.5393 21.376C61.0193 20.4693 61.686 19.7813 62.5393 19.312C63.4033 18.8427 64.4006 18.608 65.5313 18.608C66.1286 18.608 66.6993 18.6773 67.2433 18.816C67.798 18.944 68.2673 19.1307 68.6513 19.376L67.6913 21.28C67.1366 20.9067 66.438 20.72 65.5953 20.72C64.646 20.72 63.894 20.9973 63.3393 21.552C62.7846 22.1067 62.486 22.912 62.4433 23.968C63.1046 23.3067 64.0273 22.976 65.2113 22.976ZM64.6833 28.256C65.238 28.256 65.686 28.1067 66.0273 27.808C66.3793 27.5093 66.5553 27.104 66.5553 26.592C66.5553 26.08 66.3793 25.6747 66.0273 25.376C65.686 25.0667 65.2273 24.912 64.6513 24.912C64.086 24.912 63.622 25.072 63.2593 25.392C62.8966 25.7013 62.7153 26.1013 62.7153 26.592C62.7153 27.0827 62.8913 27.4827 63.2433 27.792C63.5953 28.1013 64.0753 28.256 64.6833 28.256ZM80.2628 27.648H78.4388V30H75.9108V27.648H69.8788V25.904L75.1588 18.8H77.8788L72.9828 25.536H75.9908V23.44H78.4388V25.536H80.2628V27.648ZM89.1342 18.8V20.48L84.9742 30H82.1582L86.1742 20.912H82.4622V22.736H80.1582V18.8H89.1342ZM89.6992 24.496H94.2272V26.496H89.6992V24.496ZM99.5031 23.008C101.082 23.008 102.244 23.3227 102.991 23.952C103.748 24.5813 104.127 25.424 104.127 26.48C104.127 27.1627 103.956 27.7867 103.615 28.352C103.274 28.9067 102.751 29.3547 102.047 29.696C101.354 30.0267 100.495 30.192 99.4711 30.192C98.6817 30.192 97.9031 30.0907 97.1351 29.888C96.3777 29.6747 95.7324 29.376 95.1991 28.992L96.2231 27.008C96.6497 27.328 97.1404 27.5787 97.6951 27.76C98.2497 27.9307 98.8204 28.016 99.4071 28.016C100.058 28.016 100.57 27.888 100.943 27.632C101.316 27.376 101.503 27.0187 101.503 26.56C101.503 26.08 101.306 25.7173 100.911 25.472C100.527 25.2267 99.8551 25.104 98.8951 25.104H96.0311L96.6071 18.8H103.439V20.88H98.7671L98.5911 23.008H99.5031ZM113.469 27.888V30H105.005V28.32L109.325 24.24C109.783 23.8027 110.093 23.4293 110.253 23.12C110.413 22.8 110.493 22.4853 110.493 22.176C110.493 21.728 110.338 21.3867 110.029 21.152C109.73 20.9067 109.287 20.784 108.701 20.784C108.21 20.784 107.767 20.88 107.373 21.072C106.978 21.2533 106.647 21.5307 106.381 21.904L104.493 20.688C104.93 20.0373 105.533 19.5307 106.301 19.168C107.069 18.7947 107.949 18.608 108.941 18.608C109.773 18.608 110.498 18.7467 111.117 19.024C111.746 19.2907 112.231 19.6747 112.573 20.176C112.925 20.6667 113.101 21.248 113.101 21.92C113.101 22.528 112.973 23.0987 112.717 23.632C112.461 24.1653 111.965 24.7733 111.229 25.456L108.653 27.888H113.469ZM123.275 18.8V20.48L119.115 30H116.299L120.315 20.912H116.603V22.736H114.299V18.8H123.275ZM123.84 24.496H128.368V26.496H123.84V24.496ZM140.122 27.648H138.298V30H135.77V27.648H129.738V25.904L135.018 18.8H137.738L132.842 25.536H135.85V23.44H138.298V25.536H140.122V27.648ZM144.771 18.608C146.339 18.608 147.566 19.088 148.451 20.048C149.336 20.9973 149.779 22.368 149.779 24.16C149.779 25.4293 149.539 26.5173 149.059 27.424C148.59 28.3307 147.923 29.0187 147.059 29.488C146.195 29.9573 145.198 30.192 144.067 30.192C143.47 30.192 142.899 30.128 142.355 30C141.811 29.8613 141.347 29.6693 140.963 29.424L141.923 27.52C142.467 27.8933 143.166 28.08 144.019 28.08C144.968 28.08 145.72 27.8027 146.275 27.248C146.83 26.6827 147.128 25.872 147.171 24.816C146.499 25.488 145.571 25.824 144.387 25.824C143.672 25.824 143.022 25.68 142.435 25.392C141.848 25.104 141.384 24.6987 141.043 24.176C140.702 23.6427 140.531 23.0293 140.531 22.336C140.531 21.5893 140.718 20.9333 141.091 20.368C141.464 19.8027 141.971 19.3707 142.611 19.072C143.262 18.7627 143.982 18.608 144.771 18.608ZM144.963 23.888C145.528 23.888 145.987 23.7333 146.339 23.424C146.702 23.104 146.883 22.6987 146.883 22.208C146.883 21.7173 146.707 21.3173 146.355 21.008C146.014 20.6987 145.539 20.544 144.931 20.544C144.376 20.544 143.923 20.6933 143.571 20.992C143.23 21.2907 143.059 21.696 143.059 22.208C143.059 22.72 143.23 23.1307 143.571 23.44C143.923 23.7387 144.387 23.888 144.963 23.888ZM159.728 18.8V20.48L155.568 30H152.752L156.768 20.912H153.056V22.736H150.752V18.8H159.728ZM165.369 30.192C164.441 30.192 163.615 29.9627 162.889 29.504C162.164 29.0453 161.593 28.384 161.177 27.52C160.772 26.6453 160.569 25.6053 160.569 24.4C160.569 23.1947 160.772 22.16 161.177 21.296C161.593 20.4213 162.164 19.7547 162.889 19.296C163.615 18.8373 164.441 18.608 165.369 18.608C166.297 18.608 167.124 18.8373 167.849 19.296C168.575 19.7547 169.14 20.4213 169.545 21.296C169.961 22.16 170.169 23.1947 170.169 24.4C170.169 25.6053 169.961 26.6453 169.545 27.52C169.14 28.384 168.575 29.0453 167.849 29.504C167.124 29.9627 166.297 30.192 165.369 30.192ZM165.369 28C166.052 28 166.585 27.7067 166.969 27.12C167.364 26.5333 167.561 25.6267 167.561 24.4C167.561 23.1733 167.364 22.2667 166.969 21.68C166.585 21.0933 166.052 20.8 165.369 20.8C164.697 20.8 164.164 21.0933 163.769 21.68C163.385 22.2667 163.193 23.1733 163.193 24.4C163.193 25.6267 163.385 26.5333 163.769 27.12C164.164 27.7067 164.697 28 165.369 28Z" fill="white"/>
</svg>
