<svg width="1440" height="45" viewBox="0 0 1440 45" fill="none" xmlns="http://www.w3.org/2000/svg">
<path d="M-29.5 37H3V14.6421L31 1L61 14.6421V37H93.5" stroke="#FF0000"/>
<path d="M61 37H93.5V14.6421L121.5 1L151.5 14.6421V37H184" stroke="#FF0000"/>
<path d="M704 37H736.5V14.6421L764.5 1L794.5 14.6421V37H827" stroke="#FF0000"/>
<path d="M794.5 37H827V14.6421L855 1L885 14.6421V37H917.5" stroke="#FF0000"/>
<path d="M339 37H371.5V14.6421L399.5 1L429.5 14.6421V37H462" stroke="#FF0000"/>
<path d="M429.5 37H462V14.6421L490 1L520 14.6421V37H552.5" stroke="#FF0000"/>
<path d="M1072.5 37H1105V14.6421L1133 1L1163 14.6421V37H1195.5" stroke="#FF0000"/>
<path d="M1163 37H1195.5V14.6421L1223.5 1L1253.5 14.6421V37H1286" stroke="#FF0000"/>
<path d="M154 37H186.5V14.6421L214.5 1L244.5 14.6421V37H277" stroke="#FF0000"/>
<path d="M244.5 37H277V14.6421L305 1L335 14.6421V37H367.5" stroke="#FF0000"/>
<path d="M887.5 37H920V14.6421L948 1L978 14.6421V37H1010.5" stroke="#FF0000"/>
<path d="M978 37H1010.5V14.6421L1038.5 1L1068.5 14.6421V37H1101" stroke="#FF0000"/>
<path d="M522.5 37H555V14.6421L583 1L613 14.6421V37H645.5" stroke="#FF0000"/>
<path d="M613 37H645.5V14.6421L673.5 1L703.5 14.6421V37H736" stroke="#FF0000"/>
<path d="M1256 37H1288.5V14.6421L1316.5 1L1346.5 14.6421V37H1379" stroke="#FF0000"/>
<path d="M1346.5 37H1379V14.6421L1407 1L1437 14.6421V37H1469.5" stroke="#FF0000"/>
<path d="M-29.5 44H3V21.6421L31 8L61 21.6421V44H93.5" stroke="#FF0000"/>
<path d="M61 44H93.5V21.6421L121.5 8L151.5 21.6421V44H184" stroke="#FF0000"/>
<path d="M704 44H736.5V21.6421L764.5 8L794.5 21.6421V44H827" stroke="#FF0000"/>
<path d="M794.5 44H827V21.6421L855 8L885 21.6421V44H917.5" stroke="#FF0000"/>
<path d="M339 44H371.5V21.6421L399.5 8L429.5 21.6421V44H462" stroke="#FF0000"/>
<path d="M429.5 44H462V21.6421L490 8L520 21.6421V44H552.5" stroke="#FF0000"/>
<path d="M1072.5 44H1105V21.6421L1133 8L1163 21.6421V44H1195.5" stroke="#FF0000"/>
<path d="M1163 44H1195.5V21.6421L1223.5 8L1253.5 21.6421V44H1286" stroke="#FF0000"/>
<path d="M154 44H186.5V21.6421L214.5 8L244.5 21.6421V44H277" stroke="#FF0000"/>
<path d="M244.5 44H277V21.6421L305 8L335 21.6421V44H367.5" stroke="#FF0000"/>
<path d="M887.5 44H920V21.6421L948 8L978 21.6421V44H1010.5" stroke="#FF0000"/>
<path d="M978 44H1010.5V21.6421L1038.5 8L1068.5 21.6421V44H1101" stroke="#FF0000"/>
<path d="M522.5 44H555V21.6421L583 8L613 21.6421V44H645.5" stroke="#FF0000"/>
<path d="M613 44H645.5V21.6421L673.5 8L703.5 21.6421V44H736" stroke="#FF0000"/>
<path d="M1256 44H1288.5V21.6421L1316.5 8L1346.5 21.6421V44H1379" stroke="#FF0000"/>
<path d="M1346.5 44H1379V21.6421L1407 8L1437 21.6421V44H1469.5" stroke="#FF0000"/>
</svg>
